<svg width="21" height="21" viewBox="0 0 21 21" fill="none" xmlns="http://www.w3.org/2000/svg">
<path d="M8.36182 4.66683V3.41683C8.36182 2.95659 8.7349 2.5835 9.19515 2.5835H17.5285C17.9887 2.5835 18.3618 2.95659 18.3618 3.41683V12.5835C18.3618 13.0437 17.9887 13.4168 17.5285 13.4168H15.8618" stroke="black" stroke-linecap="round" stroke-linejoin="round"/>
<path d="M11.6955 8H3.36214C2.9019 8 2.52881 8.3731 2.52881 8.83333V17.1667C2.52881 17.6269 2.9019 18 3.36214 18H11.6955C12.1557 18 12.5288 17.6269 12.5288 17.1667V8.83333C12.5288 8.3731 12.1557 8 11.6955 8Z" stroke="black" stroke-linecap="round" stroke-linejoin="round"/>
<path d="M7.52881 10.9165V15.0832" stroke="black" stroke-linecap="round" stroke-linejoin="round"/>
<path d="M5.44531 13H9.61198" stroke="black" stroke-linecap="round" stroke-linejoin="round"/>
</svg>
