<svg width="20" height="22" viewBox="0 0 20 22" fill="none" xmlns="http://www.w3.org/2000/svg">
<path d="M15.6602 7.11768C15.6602 5.59268 15.0544 4.13015 13.976 3.05181C12.8977 1.97348 11.4352 1.36768 9.91016 1.36768C8.38516 1.36768 6.92263 1.97348 5.84429 3.05181C4.76596 4.13015 4.16016 5.59268 4.16016 7.11768C4.16016 13.826 1.28516 15.7427 1.28516 15.7427H18.5352C18.5352 15.7427 15.6602 13.826 15.6602 7.11768Z" fill="black" stroke="black" stroke-width="1.5" stroke-linecap="round" stroke-linejoin="round"/>
<path d="M12.8819 18.3374C12.5382 18.9547 12.0448 19.467 11.4512 19.8232C10.8576 20.1793 10.1846 20.3668 9.49954 20.3668C8.81451 20.3668 8.1415 20.1793 7.54789 19.8232C6.95428 19.467 6.46092 18.9547 6.11719 18.3374" stroke="black" stroke-width="1.5" stroke-linecap="round" stroke-linejoin="round"/>
</svg>
