<svg width="58" height="58" viewBox="0 0 58 58" fill="none" xmlns="http://www.w3.org/2000/svg">
<circle cx="29" cy="29" r="29" fill="black"/>
<path d="M34.1476 20.0126C34.4397 19.7242 34.796 19.4831 35.1963 19.303C35.5966 19.1229 36.0329 19.0073 36.4804 18.9628C36.9278 18.9182 37.3777 18.9457 37.8043 19.0436C38.2308 19.1415 38.6258 19.3078 38.9665 19.5332C39.3072 19.7586 39.587 20.0385 39.79 20.3571C39.993 20.6756 40.1152 21.0265 40.1496 21.3897C40.1839 21.753 40.1298 22.1214 39.9903 22.474C39.8508 22.8266 39.6287 23.1565 39.3366 23.4448L24.3219 38.2643L17.8347 40.3902L19.1329 34.832L34.1476 20.0126Z" stroke="white" stroke-width="2" stroke-linecap="round" stroke-linejoin="round"/>
</svg>
