<svg width="21" height="20" viewBox="0 0 21 20" fill="none" xmlns="http://www.w3.org/2000/svg">
<path fill-rule="evenodd" clip-rule="evenodd" d="M4.01389 0L0.125 4.32429H0.273747C0.179146 4.48334 0.125 4.66801 0.125 4.86499V18.9189C0.125 19.516 0.622461 20 1.23611 20H19.0139C19.6275 20 20.125 19.516 20.125 18.9189V4.86499C20.125 4.66801 20.0709 4.48334 19.9763 4.32429H20.125L16.2361 0H4.01389ZM5.5 10.5C5.5 10.2239 5.72386 10 6 10H13C13.2761 10 13.5 10.2239 13.5 10.5C13.5 10.7761 13.2761 11 13 11H6C5.72386 11 5.5 10.7761 5.5 10.5Z" fill="black"/>
</svg>
