<svg width="15" height="14" viewBox="0 0 15 14" fill="none" xmlns="http://www.w3.org/2000/svg">
<path fill-rule="evenodd" clip-rule="evenodd" d="M14.1524 0.292893C14.5429 0.683417 14.5429 1.31658 14.1524 1.70711L2.15242 13.7071C1.7619 14.0976 1.12873 14.0976 0.738206 13.7071C0.347681 13.3166 0.347681 12.6834 0.738206 12.2929L12.7382 0.292893C13.1287 -0.0976311 13.7619 -0.0976311 14.1524 0.292893Z" fill="black"/>
<path fill-rule="evenodd" clip-rule="evenodd" d="M0.738206 0.292893C1.12873 -0.0976311 1.7619 -0.0976311 2.15242 0.292893L14.1524 12.2929C14.5429 12.6834 14.5429 13.3166 14.1524 13.7071C13.7619 14.0976 13.1287 14.0976 12.7382 13.7071L0.738206 1.70711C0.347681 1.31658 0.347681 0.683417 0.738206 0.292893Z" fill="black"/>
</svg>
