<svg width="50" height="36" viewBox="0 0 50 36" fill="none" xmlns="http://www.w3.org/2000/svg">
<path d="M7.00153 1C3.68823 1 1 3.68589 1 7V18V29C1 32.3137 3.68629 35 7 35H43C46.3137 35 49 32.3137 49 29V7C49 3.68589 46.3118 1 42.9985 1H42.9201H42.8419H42.7637H42.6856H42.6077H42.5298H42.452H42.3743H42.2967H42.2192H42.1417H42.0644H41.9872H41.91H41.8329H41.756H41.6791H41.6023H41.5256H41.449H41.3724H41.296H41.2196H41.1433H41.0672H40.9911H40.915H40.8391H40.7633H40.6875H40.6118H40.5362H40.4607H40.3853H40.3099H40.2347H40.1595H40.0844H40.0094H39.9344H39.8596H39.7848H39.7101H39.6354H39.5609H39.4864H39.412H39.3377H39.2635H39.1893H39.1153H39.0413H38.9673H38.8935H38.8197H38.746H38.6723H38.5988H38.5253H38.4519H38.3786H38.3053H38.2321H38.159H38.0859H38.0129H37.94H37.8672H37.7944H37.7217H37.6491H37.5765H37.504H37.4316H37.3592H37.2869H37.2147H37.1425H37.0704H36.9984H36.9264H36.8545H36.7827H36.7109H36.6392H36.5676H36.496H36.4245H36.353H36.2816H36.2103H36.139H36.0678H35.9967H35.9256H35.8545H35.7836H35.7126H35.6418H35.571H35.5003H35.4296H35.3589H35.2884H35.2179H35.1474H35.077H35.0067H34.9364H34.8661H34.796H34.7258H34.6558H34.5857H34.5158H34.4459H34.376H34.3062H34.2364H34.1667H34.097H34.0274H33.9579H33.8884H33.8189H33.7495H33.6801H33.6108H33.5415H33.4723H33.4031H33.334H33.2649H33.1959H33.1269H33.0579H32.989H32.9202H32.8513H32.7826H32.7138H32.6451H32.5765H32.5079H32.4393H32.3708H32.3023H32.2339H32.1655H32.0971H32.0288H31.9605H31.8923H31.8241H31.7559H31.6878H31.6197H31.5516H31.4836H31.4156H31.3477H31.2797H31.2119H31.144H31.0762H31.0084H30.9407H30.873H30.8053H30.7377H30.67H30.6025H30.5349H30.4674H30.3999H30.3324H30.265H30.1976H30.1302H30.0629H29.9956H29.9283H29.861H29.7938H29.7266H29.6594H29.5922H29.5251H29.458H29.3909H29.3239H29.2568H29.1898H29.1229H29.0559H28.989H28.922H28.8551H28.7883H28.7214H28.6546H28.5878H28.521H28.4542H28.3875H28.3207H28.254H28.1873H28.1206H28.054H27.9873H27.9207H27.8541H27.7875H27.7209H27.6544H27.5878H27.5213H27.4548H27.3883H27.3218H27.2553H27.1888H27.1224H27.0559H26.9895H26.9231H26.8566H26.7902H26.7239H26.6575H26.5911H26.5247H26.4584H26.392H26.3257H26.2594H26.193H26.1267H26.0604H25.9941H25.9278H25.8615H25.7952H25.7289H25.6627H25.5964H25.5301H25.4638H25.3976H25.3313H25.265H25.1988H25.1325H25.0663H25H24.9337H24.8675H24.8012H24.735H24.6687H24.6024H24.5362H24.4699H24.4036H24.3373H24.2711H24.2048H24.1385H24.0722H24.0059H23.9396H23.8733H23.807H23.7406H23.6743H23.608H23.5416H23.4753H23.4089H23.3425H23.2762H23.2098H23.1434H23.077H23.0105H22.9441H22.8777H22.8112H22.7447H22.6782H22.6118H22.5452H22.4787H22.4122H22.3456H22.2791H22.2125H22.1459H22.0793H22.0127H21.946H21.8794H21.8127H21.746H21.6793H21.6125H21.5458H21.479H21.4122H21.3454H21.2786H21.2117H21.1449H21.078H21.0111H20.9441H20.8772H20.8102H20.7432H20.6761H20.6091H20.542H20.4749H20.4078H20.3406H20.2734H20.2062H20.139H20.0717H20.0044H19.9371H19.8698H19.8024H19.735H19.6676H19.6001H19.5326H19.4651H19.3976H19.33H19.2624H19.1947H19.127H19.0593H18.9916H18.9238H18.856H18.7881H18.7203H18.6523H18.5844H18.5164H18.4484H18.3803H18.3122H18.2441H18.1759H18.1077H18.0395H17.9712H17.9029H17.8345H17.7661H17.6977H17.6292H17.5607H17.4921H17.4235H17.3549H17.2862H17.2174H17.1487H17.0799H17.011H16.9421H16.8731H16.8041H16.7351H16.666H16.5969H16.5277H16.4585H16.3892H16.3199H16.2505H16.1811H16.1117H16.0421H15.9726H15.903H15.8333H15.7636H15.6938H15.624H15.5542H15.4842H15.4143H15.3442H15.2742H15.204H15.1339H15.0636H14.9933H14.923H14.8526H14.7821H14.7116H14.6411H14.5704H14.4998H14.429H14.3582H14.2874H14.2164H14.1455H14.0744H14.0034H13.9322H13.861H13.7897H13.7184H13.647H13.5755H13.504H13.4324H13.3608H13.2891H13.2173H13.1455H13.0736H13.0016H12.9296H12.8575H12.7853H12.7131H12.6408H12.5684H12.496H12.4235H12.3509H12.2783H12.2056H12.1328H12.06H11.9871H11.9141H11.841H11.7679H11.6947H11.6215H11.5481H11.4747H11.4012H11.3277H11.254H11.1803H11.1065H11.0327H10.9588H10.8847H10.8107H10.7365H10.6623H10.588H10.5136H10.4391H10.3646H10.2899H10.2152H10.1404H10.0656H9.99064H9.91562H9.84052H9.76533H9.69006H9.61472H9.53929H9.46377H9.38818H9.3125H9.23674H9.16089H9.08496H9.00894H8.93284H8.85665H8.78038H8.70402H8.62758H8.55104H8.47442H8.39772H8.32092H8.24403H8.16706H8.09H8.01285H7.9356H7.85827H7.78085H7.70333H7.62572H7.54803H7.47024H7.39235H7.31438H7.23631H7.15814H7.07989H7.00153Z" stroke="#FF6337" stroke-width="2"/>
</svg>
