<svg width="27" height="26" viewBox="0 0 27 26" fill="none" xmlns="http://www.w3.org/2000/svg">
<path d="M20.3167 8.21764C20.994 9.18902 21.4706 10.3108 21.6864 11.5227H24.2785V14.4773H21.6864C21.4706 15.6893 20.994 16.811 20.3167 17.7824L22.1501 19.6158L20.0609 21.7049L18.2275 19.8716C17.2562 20.5489 16.1344 21.0255 14.9224 21.2413V23.8334H11.9679V21.2413C10.7559 21.0255 9.63414 20.5489 8.66277 19.8716L6.8294 21.7049L4.74024 19.6158L6.57357 17.7824C5.89627 16.811 5.41966 15.6893 5.20387 14.4773H2.61182V11.5227H5.20387C5.41966 10.3108 5.89627 9.18902 6.57357 8.21764L4.74024 6.38427L6.8294 4.29511L8.66277 6.12844C9.63414 5.45114 10.7559 4.97453 11.9679 4.75874V2.16669H14.9224V4.75874C16.1344 4.97453 17.2562 5.45114 18.2275 6.12844L20.0609 4.29511L22.1501 6.38427L20.3167 8.21764Z" fill="black" stroke="black" stroke-linejoin="round"/>
<path d="M13.4451 15.7084C14.9409 15.7084 16.1535 14.4958 16.1535 13C16.1535 11.5043 14.9409 10.2917 13.4451 10.2917C11.9494 10.2917 10.7368 11.5043 10.7368 13C10.7368 14.4958 11.9494 15.7084 13.4451 15.7084Z" fill="white" stroke="white" stroke-linejoin="round"/>
</svg>
