<svg width="20" height="22" viewBox="0 0 20 22" fill="none" xmlns="http://www.w3.org/2000/svg">
<path d="M15.6602 7.22168C15.6602 5.69668 15.0544 4.23415 13.976 3.15582C12.8977 2.07748 11.4352 1.47168 9.91016 1.47168C8.38516 1.47168 6.92263 2.07748 5.84429 3.15582C4.76596 4.23415 4.16016 5.69668 4.16016 7.22168C4.16016 13.93 1.28516 15.8467 1.28516 15.8467H18.5352C18.5352 15.8467 15.6602 13.93 15.6602 7.22168Z" stroke="black" stroke-width="1.5" stroke-linecap="round" stroke-linejoin="round"/>
<path d="M12.8819 18.4414C12.5382 19.0587 12.0448 19.571 11.4512 19.9272C10.8576 20.2834 10.1846 20.4708 9.49954 20.4708C8.81451 20.4708 8.1415 20.2834 7.54789 19.9272C6.95428 19.571 6.46092 19.0587 6.11719 18.4414" stroke="black" stroke-width="1.5" stroke-linecap="round" stroke-linejoin="round"/>
</svg>
